HIERARCHY
ROOT Hips
{
  OFFSET 0.0273292 -0.436096 0.279869
  CHANNELS 6 Xposition Yposition Zposition Zrotation Xrotation Yrotation
  JOINT LHipJoint
  {
    OFFSET 0 0 0
    CHANNELS 6 Xposition Yposition Zposition Zrotation Xrotation Yrotation
    JOINT LeftUpLeg
    {
      OFFSET 1.36306 -1.79463 0
      CHANNELS 6 Xposition Yposition Zposition Zrotation Xrotation Yrotation
      JOINT LeftLeg
      {
        OFFSET 2.44807 -6.72613 0.000295034
        CHANNELS 6 Xposition Yposition Zposition Zrotation Xrotation Yrotation
        JOINT LeftFoot
        {
          OFFSET 2.5622 -7.03959 3.59965e-05
          CHANNELS 6 Xposition Yposition Zposition Zrotation Xrotation Yrotation
          JOINT LeftToeBase
          {
            OFFSET 0.15764 -0.43311 2.32255
            CHANNELS 6 Xposition Yposition Zposition Zrotation Xrotation Yrotation
            End Site
            {
              OFFSET 0 0 0
            }
          }
        }
      }
    }
  }
  JOINT RHipJoint
  {
    OFFSET 0 0 0
    CHANNELS 6 Xposition Yposition Zposition Zrotation Xrotation Yrotation
    JOINT RightUpLeg
    {
      OFFSET -1.30552 -1.79463 0
      CHANNELS 6 Xposition Yposition Zposition Zrotation Xrotation Yrotation
      JOINT RightLeg
      {
        OFFSET -2.54234 -6.98562 -0.000396375
        CHANNELS 6 Xposition Yposition Zposition Zrotation Xrotation Yrotation
        JOINT RightFoot
        {
          OFFSET -2.56826 -7.05623 -4.47982e-05
          CHANNELS 6 Xposition Yposition Zposition Zrotation Xrotation Yrotation
          JOINT RightToeBase
          {
            OFFSET -0.16473 -0.45259 2.36315
            CHANNELS 6 Xposition Yposition Zposition Zrotation Xrotation Yrotation
            End Site
            {
              OFFSET 0 0 0
            }
          }
        }
      }
    }
  }
  JOINT LowerBack
  {
    OFFSET 0 0 0
    CHANNELS 6 Xposition Yposition Zposition Zrotation Xrotation Yrotation
    JOINT Spine
    {
      OFFSET 0.0282699 2.03559 0
      CHANNELS 6 Xposition Yposition Zposition Zrotation Xrotation Yrotation
      JOINT Spine1
      {
        OFFSET 0.05672 2.04885 -0.04275
        CHANNELS 6 Xposition Yposition Zposition Zrotation Xrotation Yrotation
        JOINT Neck
        {
          OFFSET 0 0 0
          CHANNELS 6 Xposition Yposition Zposition Zrotation Xrotation Yrotation
          JOINT Neck1
          {
            OFFSET -0.05417 1.74624 0.17202
            CHANNELS 6 Xposition Yposition Zposition Zrotation Xrotation Yrotation
            JOINT Head
            {
              OFFSET 0.10407 1.76136 -0.12397
              CHANNELS 6 Xposition Yposition Zposition Zrotation Xrotation Yrotation
              End Site
              {
                OFFSET 0 0 0
              }
            }
          }
        }
        JOINT LeftShoulder
        {
          OFFSET 0 0 0
          CHANNELS 6 Xposition Yposition Zposition Zrotation Xrotation Yrotation
          JOINT LeftArm
          {
            OFFSET 3.36241 1.20089 -0.311211
            CHANNELS 6 Xposition Yposition Zposition Zrotation Xrotation Yrotation
            JOINT LeftForeArm
            {
              OFFSET 4.983 0.000197398 0.000166057
              CHANNELS 6 Xposition Yposition Zposition Zrotation Xrotation Yrotation
              JOINT LeftHand
              {
                OFFSET 3.48356 0 1.87849e-05
                CHANNELS 6 Xposition Yposition Zposition Zrotation Xrotation Yrotation
                JOINT LeftFingerBase
                {
                  OFFSET 0 0 0
                  CHANNELS 6 Xposition Yposition Zposition Zrotation Xrotation Yrotation
                  JOINT LeftHandIndex1
                  {
                    OFFSET 0.71526 0 0
                    CHANNELS 6 Xposition Yposition Zposition Zrotation Xrotation Yrotation
                    End Site
                    {
                      OFFSET 0 0 0
                    }
                  }
                }
                JOINT LThumb
                {
                  OFFSET 0 0 0
                  CHANNELS 6 Xposition Yposition Zposition Zrotation Xrotation Yrotation
                  End Site
                  {
                    OFFSET 0 0 0
                  }
                }
              }
            }
          }
        }
        JOINT RightShoulder
        {
          OFFSET 0 0 0
          CHANNELS 6 Xposition Yposition Zposition Zrotation Xrotation Yrotation
          JOINT RightArm
          {
            OFFSET -3.1366 1.37405 -0.404651
            CHANNELS 6 Xposition Yposition Zposition Zrotation Xrotation Yrotation
            JOINT RightForeArm
            {
              OFFSET -5.2419 -5.8808e-05 -0.000165864
              CHANNELS 6 Xposition Yposition Zposition Zrotation Xrotation Yrotation
              JOINT RightHand
              {
                OFFSET -3.44417 0 -2.00002e-05
                CHANNELS 6 Xposition Yposition Zposition Zrotation Xrotation Yrotation
                JOINT RightFingerBase
                {
                  OFFSET 0 0 0
                  CHANNELS 6 Xposition Yposition Zposition Zrotation Xrotation Yrotation
                  JOINT RightHandIndex1
                  {
                    OFFSET -0.62253 0 0
                    CHANNELS 6 Xposition Yposition Zposition Zrotation Xrotation Yrotation
                    End Site
                    {
                      OFFSET 0 0 0
                    }
                  }
                }
                JOINT RThumb
                {
                  OFFSET 0 0 0
                  CHANNELS 6 Xposition Yposition Zposition Zrotation Xrotation Yrotation
                  End Site
                  {
                    OFFSET 0 0 0
                  }
                }
              }
            }
          }
        }
      }
    }
  }
}
MOTION
Frames:	4
Frame Time:	0.00833333
0.810994 1.66751 -1.65185 -0.0969972 23.6837 -0.529442 0 0 0 7.45443e-17 -3.18055e-15 -1.49089e-16 1.36306 -1.79463 -1.29e-07 -48.374 -50.1621 -53.3132 2.44779 -6.72625 -0.000177884 -48.1201 57.904 72.0017 2.56231 -7.03954 -3.17104e-05 -5.85539 -2.63571 -11.3554 0.15764 -0.43311 2.32255 -4.96962e-15 -3.18055e-15 3.18055e-15 0 0 0 7.45443e-17 -3.18055e-15 -1.49089e-16 -1.30552 -1.79463 -1.29e-07 -16.0017 -76.1315 0.953382 -2.54111 -6.98607 0.00147489 22.7293 52.0277 -44.2102 -2.56829 -7.05621 2.3074e-05 -2.03287 -1.86993 -3.81033 -0.16473 -0.45259 2.36315 -6.95746e-16 -5.96354e-16 3.18055e-15 0 0 0 7.45443e-17 -3.18055e-15 -1.49089e-16 0.0282699 2.03559 -6.91999e-07 0.531903 -0.879755 1.6321 0.05672 2.04885 -0.04275 -1.10348e-32 3.18055e-15 1.98785e-16 0 0 0 -1.49089e-16 3.18055e-15 1.98785e-16 -0.05417 1.74624 0.17202 -0.133068 -24.6384 1.55212 0.10407 1.76136 -0.12397 -1.98785e-16 0 -0 0 0 0 -1.49089e-16 3.18055e-15 1.98785e-16 3.36241 1.20089 -0.31121 -19.0614 -25.1629 -42.2107 4.983 -0.000189345 -0.000227787 1.88447 1.20052 -73.6138 3.48356 -3.46861e-06 1.09872e-05 3.35936 33.3926 32.7145 0 0 0 1.59028e-15 1.59028e-15 3.18055e-15 0.71526 -6.66134e-16 1.77636e-15 -1.59028e-15 7.95139e-16 -0 0 0 0 1.59028e-15 1.59028e-15 3.18055e-15 0 0 0 -1.49089e-16 3.18055e-15 1.98785e-16 -3.1366 1.37405 -0.40465 27.9228 -16.7071 51.0537 -5.2419 -0.000631664 -3.89281e-06 -1.96532 1.22184 77.5119 -3.44417 -2.84205e-06 2.08334e-05 23.0334 40.4659 -30.7676 0 0 0 -2.98177e-16 7.20594e-16 1.59028e-15 -0.62253 4.44089e-16 0 -2.98177e-16 3.93842e-15 -0 0 0 0 -2.98177e-16 7.20594e-16 1.59028e-15 
0.805438 1.66971 -1.65284 -0.0840179 23.6756 -0.529545 0 0 0 2.48481e-17 0 -4.96962e-17 1.36306 -1.79463 -1.29e-07 -47.9045 -50.2044 -52.9002 2.44779 -6.72625 -0.000177884 -48.3369 57.9484 72.2553 2.56231 -7.03954 -3.17104e-05 -5.67853 -2.5187 -11.0917 0.15764 -0.43311 2.32255 -2.38542e-15 -9.54166e-15 2.38542e-15 0 0 0 2.48481e-17 0 -4.96962e-17 -1.30552 -1.79463 -1.29e-07 -15.1581 -76.1825 1.71027 -2.54111 -6.98607 0.00147489 22.6684 51.9765 -44.1479 -2.56829 -7.05621 2.3074e-05 -1.92544 -1.96684 -3.82907 -0.16473 -0.45259 2.36315 -0 -3.97569e-16 -0 0 0 0 2.48481e-17 0 -4.96962e-17 0.0282699 2.03559 -6.91999e-07 0.518418 -0.873044 1.61396 0.05672 2.04885 -0.04275 -1.98785e-16 0 -0 0 0 0 -1.98785e-16 0 9.93923e-17 -0.05417 1.74624 0.17202 -0.166056 -24.6126 1.48728 0.10407 1.76136 -0.12397 -2.48481e-16 -3.97569e-16 -0 0 0 0 -1.98785e-16 0 9.93923e-17 3.36241 1.20089 -0.31121 -19.1284 -25.0666 -42.4037 4.983 -0.000189345 -0.000227787 1.88853 1.20045 -73.8004 3.48356 -3.46861e-06 1.09872e-05 3.35202 33.1578 32.8711 0 0 0 -1.59028e-15 -2.38542e-15 6.36111e-15 0.71526 -4.44089e-16 -1.77636e-15 4.77083e-15 -2.38542e-15 -0 0 0 0 -1.59028e-15 -2.38542e-15 6.36111e-15 0 0 0 -1.98785e-16 0 9.93923e-17 -3.1366 1.37405 -0.40465 27.9022 -16.5823 51.0858 -5.2419 -0.000631664 -3.89281e-06 -1.9685 1.22177 77.6609 -3.44417 -2.84205e-06 2.08334e-05 22.8563 40.327 -30.3239 0 0 0 -9.93923e-17 1.63997e-15 1.59028e-15 -0.62253 0 0 -1.98785e-16 -4.75841e-15 1.59028e-15 0 0 0 -9.93923e-17 1.63997e-15 1.59028e-15 
0.79988 1.6719 -1.65384 -0.071012 23.6675 -0.529653 0 0 0 2.20695e-32 -1.27222e-14 9.93923e-17 1.36306 -1.79463 -1.29e-07 -47.4355 -50.2451 -52.4869 2.44779 -6.72625 -0.000177884 -48.5539 57.9922 72.5098 2.56231 -7.03954 -3.17104e-05 -5.5028 -2.40061 -10.8275 0.15764 -0.43311 2.32255 2.38542e-15 3.18055e-15 -1.19271e-15 0 0 0 2.20695e-32 -1.27222e-14 9.93923e-17 -1.30552 -1.79463 -1.29e-07 -14.3077 -76.2313 2.47328 -2.54111 -6.98607 0.00147489 22.6076 51.9252 -44.0857 -2.56829 -7.05621 2.3074e-05 -1.81752 -2.06382 -3.84795 -0.16473 -0.45259 2.36315 8.44835e-16 3.97569e-16 6.36111e-15 0 0 0 2.20695e-32 -1.27222e-14 9.93923e-17 0.0282699 2.03559 -6.91999e-07 0.50495 -0.866267 1.59577 0.05672 2.04885 -0.04275 0 0 -3.97569e-16 0 0 0 1.49089e-16 -3.18055e-15 -0 -0.05417 1.74624 0.17202 -0.198991 -24.5867 1.42241 0.10407 1.76136 -0.12397 -2.48481e-17 -1.98785e-16 -7.95139e-16 0 0 0 1.49089e-16 -3.18055e-15 -0 3.36241 1.20089 -0.31121 -19.1954 -24.9701 -42.5969 4.983 -0.000189345 -0.000227787 1.89257 1.20043 -73.9875 3.48356 -3.46861e-06 1.09872e-05 3.3452 32.9237 33.0279 0 0 0 -0 0 3.18055e-15 0.71526 0 8.88178e-16 -4.41391e-32 7.95139e-16 3.18055e-15 0 0 0 -0 0 3.18055e-15 0 0 0 1.49089e-16 -3.18055e-15 -0 -3.1366 1.37405 -0.40465 27.8813 -16.4579 51.1174 -5.2419 -0.000631664 -3.89281e-06 -1.97166 1.22173 77.8099 -3.44417 -2.84205e-06 2.08334e-05 22.6796 40.189 -29.8807 0 0 0 2.08971e-31 -3.76448e-15 3.18055e-15 -0.62253 -8.88178e-16 -8.88178e-16 2.98177e-16 -3.73964e-15 -0 0 0 0 2.08971e-31 -3.76448e-15 3.18055e-15 
0.794307 1.67412 -1.65484 -0.058054 23.6594 -0.529757 0 0 0 -4.96962e-17 3.18055e-15 -9.93923e-17 1.36306 -1.79463 -1.29e-07 -46.9692 -50.2842 -52.0754 2.44779 -6.72625 -0.000177884 -48.7715 58.0356 72.767 2.56231 -7.03954 -3.17104e-05 -5.32821 -2.28158 -10.5628 0.15764 -0.43311 2.32255 1.59028e-15 3.18055e-15 7.95139e-16 0 0 0 -4.96962e-17 3.18055e-15 -9.93923e-17 -1.30552 -1.79463 -1.29e-07 -13.4505 -76.2778 3.24239 -2.54111 -6.98607 0.00147489 22.5469 51.8738 -44.0237 -2.56829 -7.05621 2.3074e-05 -1.70903 -2.16089 -3.86686 -0.16473 -0.45259 2.36315 -4.96962e-17 -1.98785e-16 -0 0 0 0 -4.96962e-17 3.18055e-15 -9.93923e-17 0.0282699 2.03559 -6.91999e-07 0.491497 -0.859447 1.57754 0.05672 2.04885 -0.04275 -9.93923e-17 -3.18055e-15 -1.98785e-16 0 0 0 4.96962e-17 -3.18055e-15 -1.98785e-16 -0.05417 1.74624 0.17202 -0.231874 -24.5605 1.35743 0.10407 1.76136 -0.12397 3.72721e-17 -3.97569e-16 -3.97569e-16 0 0 0 4.96962e-17 -3.18055e-15 -1.98785e-16 3.36241 1.20089 -0.31121 -19.2624 -24.8735 -42.7901 4.983 -0.000189345 -0.000227787 1.89662 1.20049 -74.1752 3.48356 -3.46861e-06 1.09872e-05 3.33857 32.6875 33.1843 0 0 0 -1.59028e-15 7.95139e-16 -0 0.71526 -4.44089e-16 -8.88178e-16 3.18055e-15 -2.38542e-15 -3.18055e-15 0 0 0 -1.59028e-15 7.95139e-16 -0 0 0 0 4.96962e-17 -3.18055e-15 -1.98785e-16 -3.1366 1.37405 -0.40465 27.8602 -16.3338 51.1482 -5.2419 -0.000631664 -3.89281e-06 -1.97479 1.22176 77.9588 -3.44417 -2.84205e-06 2.08334e-05 22.5022 40.0489 -29.4366 0 0 0 -2.98177e-16 -5.98839e-15 -1.59028e-15 -0.62253 -1.33227e-15 8.88178e-16 -6.95746e-16 -6.01324e-15 -1.59028e-15 0 0 0 -2.98177e-16 -5.98839e-15 -1.59028e-15 
